PathFileType	4	(X/Y/Z)	c:/Users/goper/Files/vsCode/490R/osim_files/C12/C12_Slow_05.trc
DataRate	CameraRate	NumFrames	NumMarkers	Units                	OrigDataRate	OrigDataStartFrame	OrigNumFrames
120.00	120.00	4	36	mm	120.0	538	1432
                Frame#	Time	LPSIS			LASIS			LTH1			LTH2			LTH3			LTH4			LLFE			LMFE			LSH1			LSH2			LSH3			LSH4			LLMAL			LMMAL			LCAL			LMTP5			LTOE			LMTP1			RPSIS			RASIS			RTH1			RTH2			RTH3			RTH4			RLFE			RMFE			RSH1			RSH2			RSH3			RSH4			RLMAL			RMMAL			RCAL			RMTP1			RTOE			RMTP5		
		X1	Y1	Z1	X2	Y2	Z2	X3	Y3	Z3	X4	Y4	Z4	X5	Y5	Z5	X6	Y6	Z6	X7	Y7	Z7	X8	Y8	Z8	X9	Y9	Z9	X10	Y10	Z10	X11	Y11	Z11	X12	Y12	Z12	X13	Y13	Z13	X14	Y14	Z14	X15	Y15	Z15	X16	Y16	Z16	X17	Y17	Z17	X18	Y18	Z18	X19	Y19	Z19	X20	Y20	Z20	X21	Y21	Z21	X22	Y22	Z22	X23	Y23	Z23	X24	Y24	Z24	X25	Y25	Z25	X26	Y26	Z26	X27	Y27	Z27	X28	Y28	Z28	X29	Y29	Z29	X30	Y30	Z30	X31	Y31	Z31	X32	Y32	Z32	X33	Y33	Z33	X34	Y34	Z34	X35	Y35	Z35	X36	Y36	Z36

538	4.47500	1674.02576	1054.78870	365.03217	1503.57031	1008.31653	440.02524	1630.90979	734.88165	491.61578	1629.01160	689.75238	492.69003	1570.84436	732.97742	504.47092	1571.63721	686.70856	501.59747	1617.13391	508.45413	481.20508	1585.01379	484.53156	361.27826	1724.01831	484.04764	483.05103	1760.03894	454.08160	488.59769	1690.24524	435.34476	493.33600	1730.65088	412.08606	493.42706	1973.25159	256.23569	430.65213	1943.72168	241.53183	356.82132	1995.72839	303.69983	384.06213	2003.56458	104.52335	439.31970	1947.68347	68.46524	382.13992	0.00000	0.00000	0.00000	1676.92639	1052.85754	249.68938	1485.60059	1027.72449	185.66782	1512.49683	738.87543	137.04729	0.00000	0.00000	0.00000	1453.10669	756.52521	144.44974	1445.52734	711.33063	149.90826	1442.58496	528.63489	195.43999	1457.38708	536.41400	328.84485	1498.76709	428.28146	174.15778	1494.35632	384.35532	170.06763	1435.71924	423.78900	187.02242	1442.41833	382.16403	179.69153	1479.85522	97.29050	228.19597	1466.87830	113.65687	310.45572	1554.10938	64.16354	266.42783	1340.97668	47.04694	316.14792	1298.60071	69.24381	284.86252	1328.28540	40.47955	209.89651
539	4.48333	1665.29089	1055.14038	364.24490	1494.35352	1009.85651	439.31021	0.00000	0.00000	0.00000	1614.40784	690.12531	493.16534	1557.58875	734.60547	505.01889	1560.94446	688.50916	505.52954	1598.25354	509.34430	482.26077	1565.90161	486.33060	361.74298	1704.21936	485.50223	484.03821	1740.61230	455.95490	489.65222	1670.73315	436.40457	494.13678	1712.77600	415.15942	494.96228	1957.46814	261.71875	430.87384	1926.45032	245.70490	357.33502	1977.08972	309.82523	383.04752	1993.80835	110.80398	438.48547	1932.15527	71.99431	385.35159	0.00000	0.00000	0.00000	1667.71643	1054.00061	248.78261	1476.64636	1029.04602	184.73827	1506.69116	739.65558	135.92099	0.00000	0.00000	0.00000	1446.98462	756.11157	140.39487	0.00000	0.00000	0.00000	1439.31470	528.76965	194.06955	1453.26953	536.71814	327.58786	1496.39307	428.23987	173.84390	1492.96899	384.88397	169.48721	1433.71069	423.77560	185.50536	1440.86316	382.22794	178.43787	1479.62622	97.40241	227.91594	1466.37280	114.07008	310.00864	1553.89441	64.54021	266.30182	1340.83203	46.98249	316.02829	1298.36426	68.82155	284.63312	1328.12415	40.15479	209.70679
540	4.49167	1656.60681	1055.59143	363.35529	1485.11780	1011.56342	438.61456	0.00000	0.00000	0.00000	1600.32996	690.80298	493.47748	1544.31104	736.39001	505.43246	1547.17651	690.43115	506.33401	1579.38538	510.65466	483.38000	1546.97363	488.23996	362.44284	1684.40918	487.18356	484.92252	1721.04785	457.93283	490.58066	1650.50647	437.48325	494.75610	1692.42322	415.36325	495.15057	1940.93188	266.87729	430.83020	1908.62927	249.75084	357.48511	1958.49646	315.32013	381.96777	1981.27148	117.35059	438.41656	1919.67969	77.32780	386.47110	0.00000	0.00000	0.00000	1658.49951	1055.12219	247.89174	1467.02112	1030.43994	183.95616	1500.87244	740.42542	134.72093	0.00000	0.00000	0.00000	0.00000	0.00000	0.00000	0.00000	0.00000	0.00000	1436.21521	528.83997	192.75505	1449.13831	536.90216	326.50879	1494.47913	428.75290	173.10376	1491.37756	385.35547	168.94344	1431.69812	423.81189	184.25133	1439.40027	382.34686	177.14607	1479.35852	97.54022	227.60785	1466.06104	114.45298	309.67133	1553.71460	64.95509	266.22562	1340.41089	46.79305	315.90402	1298.27124	68.53780	284.43884	1329.01465	39.74924	208.45937
541	4.50000	1647.91431	1056.21008	362.49545	1476.07788	1013.49390	437.88937	0.00000	0.00000	0.00000	1586.41125	691.72913	493.67114	1531.28748	738.33301	505.81561	1532.93384	692.12988	506.63315	1560.57471	512.21594	484.43222	1527.78516	490.58258	363.03433	1664.70593	489.13608	485.64389	1701.58801	460.16501	491.33426	1632.15918	439.60895	495.52499	1674.39929	418.79266	496.30954	1923.76611	272.05817	430.55368	1893.53125	255.15086	353.78802	1940.81189	320.44653	380.97498	1965.50525	122.82552	438.62643	1907.89514	81.68765	387.10773	0.00000	0.00000	0.00000	1649.48523	1056.35278	246.97354	1457.85315	1031.74719	183.11044	0.00000	0.00000	0.00000	1495.96143	573.09576	325.19476	0.00000	0.00000	0.00000	0.00000	0.00000	0.00000	0.00000	0.00000	0.00000	1445.52173	537.23517	325.44904	1493.04541	429.85480	172.54460	1489.74011	385.90790	168.19461	1429.64441	423.86713	183.15874	1437.63721	382.43689	176.18082	1479.06213	97.72909	227.33350	1465.72864	114.49879	309.09689	1553.50598	65.44588	266.15521	1340.20813	46.69384	315.78104	1297.98950	68.18900	284.31671	1328.75598	39.36874	208.66580
